<svg width="256" height="256" viewBox="0 0 256 256"
  xmlns="http://www.w3.org/2000/svg">
  <style>
    .theme {
    stroke: black;
    }
    @media (prefers-color-scheme: dark) {
    .theme {
    stroke: white;
    }
    }
  </style>
  <rect width="256" height="256" fill="none" />
  <g class="theme" fill="none" stroke-width="7" stroke-linecap="round">
    <path
      d="
      M0 32
      C 8 16,24 16,32 32
      C 40 48,56 48,64 32
      C 72 16,88 16,96 32
      C 104 48,120 48,128 32
      C 136 16,152 16,160 32
      C 168 48,184 48,192 32
      C 200 16,216 16,224 32
      C 232 48,248 48,256 32" />
    <path
      d="
      M0 72
      C 8 56,24 56,32 72
      C 40 88,56 88,64 72
      C 72 56,88 56,96 72
      C 104 88,120 88,128 72
      C 136 56,152 56,160 72
      C 168 88,184 88,192 72
      C 200 56,216 56,224 72
      C 232 88,248 88,256 72" />
    <path
      d="
      M0 112
      C 8 96,24 96,32 112
      C 40 128,56 128,64 112
      C 72 96,88 96,96 112
      C 104 128,120 128,128 112
      C 136 96,152 96,160 112
      C 168 128,184 128,192 112
      C 200 96,216 96,224 112
      C 232 128,248 128,256 112" />
    <path
      d="
      M0 152
      C 8 136,24 136,32 152
      C 40 168,56 168,64 152
      C 72 136,88 136,96 152
      C 104 168,120 168,128 152
      C 136 136,152 136,160 152
      C 168 168,184 168,192 152
      C 200 136,216 136,224 152
      C 232 168,248 168,256 152" />
    <path
      d="
      M0 192
      C 8 176,24 176,32 192
      C 40 208,56 208,64 192
      C 72 176,88 176,96 192
      C 104 208,120 208,128 192
      C 136 176,152 176,160 192
      C 168 208,184 208,192 192
      C 200 176,216 176,224 192
      C 232 208,248 208,256 192" />
    <path
      d="
      M0 232
      C 8 216,24 216,32 232
      C 40 248,56 248,64 232
      C 72 216,88 216,96 232
      C 104 248,120 248,128 232
      C 136 216,152 216,160 232
      C 168 248,184 248,192 232
      C 200 216,216 216,224 232
      C 232 248,248 248,256 232" />
  </g>
</svg>